<svg width="31" height="31" viewBox="0 0 31 31" fill="none" xmlns="http://www.w3.org/2000/svg">
<path d="M10.3125 24.875C10.3125 24.75 10.1875 24.625 10 24.625C9.8125 24.625 9.6875 24.75 9.6875 24.875C9.6875 25 9.8125 25.125 10 25.0625C10.1875 25.0625 10.3125 25 10.3125 24.875ZM8.375 24.5625C8.4375 24.4375 8.625 24.375 8.8125 24.4375C9 24.5 9.0625 24.625 9.0625 24.75C9 24.875 8.8125 24.9375 8.6875 24.875C8.5 24.875 8.375 24.6875 8.375 24.5625ZM11.1875 24.5C11.3125 24.4375 11.5 24.5625 11.5 24.6875C11.5625 24.8125 11.4375 24.875 11.25 24.9375C11.0625 25 10.875 24.9375 10.875 24.8125C10.875 24.625 11 24.5 11.1875 24.5ZM15.25 0.5C23.9375 0.5 31 7.125 31 15.75C31 22.6875 26.75 28.625 20.5 30.6875C19.6875 30.875 19.375 30.375 19.375 29.9375C19.375 29.4375 19.4375 26.8125 19.4375 24.75C19.4375 23.25 18.9375 22.3125 18.375 21.8125C21.875 21.4375 25.5625 20.9375 25.5625 14.9375C25.5625 13.1875 24.9375 12.375 23.9375 11.25C24.0625 10.8125 24.625 9.1875 23.75 7C22.4375 6.5625 19.4375 8.6875 19.4375 8.6875C18.1875 8.3125 16.875 8.1875 15.5 8.1875C14.1875 8.1875 12.875 8.3125 11.625 8.6875C11.625 8.6875 8.5625 6.625 7.3125 7C6.4375 9.1875 6.9375 10.8125 7.125 11.25C6.125 12.375 5.625 13.1875 5.625 14.9375C5.625 20.9375 9.1875 21.4375 12.6875 21.8125C12.1875 22.25 11.8125 22.9375 11.6875 23.9375C10.75 24.375 8.5 25.0625 7.125 22.625C6.25 21.125 4.6875 21 4.6875 21C3.1875 21 4.625 22 4.625 22C5.625 22.4375 6.3125 24.25 6.3125 24.25C7.25 27.0625 11.625 26.125 11.625 26.125C11.625 27.4375 11.625 29.5625 11.625 30C11.625 30.375 11.375 30.875 10.5625 30.75C4.3125 28.625 0 22.6875 0 15.75C0 7.125 6.625 0.5 15.25 0.5ZM6.0625 22.0625C6.125 22 6.25 22.0625 6.375 22.125C6.5 22.25 6.5 22.4375 6.4375 22.5C6.3125 22.5625 6.1875 22.5 6.0625 22.4375C6 22.3125 5.9375 22.125 6.0625 22.0625ZM5.375 21.5625C5.4375 21.5 5.5 21.5 5.625 21.5625C5.75 21.625 5.8125 21.6875 5.8125 21.75C5.75 21.875 5.625 21.875 5.5 21.8125C5.375 21.75 5.3125 21.6875 5.375 21.5625ZM7.375 23.8125C7.5 23.6875 7.6875 23.75 7.8125 23.875C7.9375 24 7.9375 24.1875 7.875 24.25C7.8125 24.375 7.625 24.3125 7.5 24.1875C7.3125 24.0625 7.3125 23.875 7.375 23.8125ZM6.6875 22.875C6.8125 22.8125 6.9375 22.875 7.0625 23C7.125 23.125 7.125 23.3125 7.0625 23.375C6.9375 23.4375 6.8125 23.375 6.6875 23.25C6.5625 23.125 6.5625 22.9375 6.6875 22.875Z" fill="white"/>
</svg>
